<?xml version="1.0" encoding="UTF-8"?><svg id="Layer_2" xmlns="http://www.w3.org/2000/svg" viewBox="0 0 503.65 436.49"><g id="Layer_1-2"><path d="M500,.5c2.09,.53,3.15,1.85,3.15,3.94s-1.06,3.15-3.15,3.15c-3.15-.52-6.04-.79-8.66-.79h-5.51c-4.21,0-7.62,.39-10.24,1.18-2.63,.79-5.25,2.76-7.88,5.91-11.03,14.17-22.84,32.95-35.44,56.31-12.6,23.37-24.94,46.34-37.01,68.91-12.08,22.05-24.15,43.45-36.22,64.18-12.08,20.75-24.41,41.08-37.01,61.03-8.4,13.66-18.51,28.23-30.32,43.71-11.81,15.49-22.97,28.23-33.47,38.19-11.55,11.03-23.9,21.92-37.01,32.68-13.13,10.75-27.44,20.34-42.92,28.74-15.49,8.39-32.17,15.22-50.01,20.47-17.85,5.24-37.8,7.88-59.85,7.88-23.62,0-43.83-3.42-60.64-10.24-2.62-1.06-4.59-2.24-5.91-3.54-1.3-1.32-1.7-3.81-1.18-7.48,0-3.68,.14-8.8,.39-15.36,.27-6.57,.66-13.52,1.18-20.87l5.51-1.58c2.1,13.65,8.8,25.32,20.08,35.04,11.3,9.71,29.53,14.57,54.73,14.57,22.05,0,42.39-3.81,61.03-11.42,18.63-7.62,38.19-21.66,58.67-42.13,18.37-18.38,36.88-41.07,55.52-68.12,18.63-27.03,37.92-57.35,57.88-90.96,8.92-15.22,18.37-31.62,28.35-49.22,9.97-17.58,19.69-35.3,29.14-53.16,9.45-17.84,18.37-35.04,26.77-51.58,8.39-16.54,15.48-31.11,21.26-43.71,.52-1.05,.79-2.62,.79-4.73s-1.58-3.15-4.73-3.15c-11.02,0-22.84,.66-35.44,1.97-12.6,1.32-25.2,3.29-37.8,5.91-12.6,2.63-24.68,5.78-36.22,9.45-11.55,3.68-21.79,7.88-30.71,12.6-8.93,4.73-16.93,12.08-24.02,22.05-7.09,9.98-10.63,21-10.63,33.07,0,4.21,.52,7.88,1.58,11.03,1.05,1.57,.52,2.36-1.58,2.36-2.63-1.58-5.39-4.73-8.27-9.45-2.89-4.72-4.33-12.07-4.33-22.05,0-8.39,4.2-17.98,12.6-28.74,8.39-10.75,23.62-19.81,45.68-27.17,7.88-2.62,17.05-4.98,27.56-7.09,10.5-2.09,23.88-4.06,40.16-5.91,16.27-1.83,36.09-3.27,59.46-4.33,23.35-1.05,51.58-1.58,84.66-1.58Z" fill="#fff" stroke="#fff"/></g></svg>