<?xml version="1.0" encoding="UTF-8"?><svg id="Layer_2" xmlns="http://www.w3.org/2000/svg" viewBox="0 0 298.59 298.59"><g id="Layer_1-2"><path d="M269.33,149.29c0-16.54,12.55-30.15,28.65-31.83-3.92-18.38-11.15-35.54-21.05-50.8-12.57,10.19-31.06,9.45-42.76-2.25-11.69-11.69-12.44-30.19-2.25-42.76-15.27-9.9-32.42-17.14-50.8-21.05-1.67,16.1-15.28,28.65-31.83,28.65S119.14,16.7,117.47,.6c-18.38,3.92-35.54,11.15-50.8,21.05,10.19,12.57,9.45,31.06-2.25,42.76s-30.19,12.44-42.76,2.25C11.76,81.93,4.52,99.08,.6,117.47c16.1,1.67,28.65,15.28,28.65,31.83s-12.55,30.15-28.65,31.83c3.92,18.38,11.15,35.54,21.05,50.8,12.57-10.19,31.06-9.45,42.76,2.25s12.44,30.19,2.25,42.76c15.27,9.9,32.42,17.14,50.8,21.05,1.67-16.1,15.28-28.65,31.83-28.65s30.15,12.55,31.83,28.65c18.38-3.92,35.54-11.15,50.8-21.05-10.19-12.57-9.45-31.06,2.25-42.76s30.19-12.44,42.76-2.25c9.9-15.27,17.14-32.42,21.05-50.8-16.1-1.67-28.65-15.28-28.65-31.83Zm-120.03,99.66c-55.04,0-99.66-44.62-99.66-99.66S94.25,49.63,149.29,49.63s99.66,44.62,99.66,99.66-44.62,99.66-99.66,99.66Z" fill="#fff" stroke="#fff" stroke-miterlimit="10"/></g></svg>