<?xml version="1.0" encoding="UTF-8"?><svg id="Layer_2" xmlns="http://www.w3.org/2000/svg" viewBox="0 0 300 300"><g id="Layer_1-2"><g><g><line x1="150" y1="236.04" x2="150" y2="120.88" fill="none" stroke="#fff" stroke-linecap="round" stroke-miterlimit="10" stroke-width="25"/><line x1="150" y1="63.97" x2="150" y2="63.96" fill="none" stroke="#fff" stroke-linecap="round" stroke-miterlimit="10" stroke-width="25"/></g><path d="M150,25c33.39,0,64.78,13,88.39,36.61,23.61,23.61,36.61,55,36.61,88.39s-13,64.78-36.61,88.39c-23.61,23.61-55,36.61-88.39,36.61s-64.78-13-88.39-36.61c-23.61-23.61-36.61-55-36.61-88.39s13-64.78,36.61-88.39c23.61-23.61,55-36.61,88.39-36.61m0-25C67.16,0,0,67.16,0,150s67.16,150,150,150,150-67.16,150-150S232.84,0,150,0h0Z" fill="#fff"/></g></g></svg>