<?xml version="1.0" encoding="UTF-8"?><svg id="Layer_2" xmlns="http://www.w3.org/2000/svg" viewBox="0 0 301.21 301.21"><g id="Layer_1-2"><path d="M271.7,150.6c0-16.69,12.66-30.42,28.91-32.11-3.95-18.55-11.25-35.85-21.24-51.25-12.68,10.28-31.34,9.53-43.13-2.27-11.8-11.8-12.55-30.46-2.27-43.13-15.4-9.99-32.7-17.29-51.25-21.24-1.69,16.24-15.42,28.91-32.11,28.91S120.19,16.85,118.5,.6c-18.55,3.95-35.85,11.25-51.25,21.24,10.28,12.68,9.53,31.34-2.27,43.13-11.8,11.8-30.46,12.55-43.13,2.27C11.85,82.65,4.56,99.95,.6,118.5c16.24,1.69,28.91,15.42,28.91,32.11s-12.66,30.42-28.91,32.11c3.95,18.55,11.25,35.85,21.24,51.25,12.68-10.28,31.34-9.53,43.13,2.27,11.8,11.8,12.55,30.46,2.27,43.13,15.4,9.99,32.7,17.29,51.25,21.24,1.69-16.24,15.42-28.91,32.11-28.91s30.42,12.66,32.11,28.91c18.55-3.95,35.85-11.25,51.25-21.24-10.28-12.68-9.53-31.34,2.27-43.13s30.46-12.55,43.13-2.27c9.99-15.4,17.29-32.7,21.24-51.25-16.24-1.69-28.91-15.42-28.91-32.11Zm-121.09,100.54c-55.53,0-100.54-45.01-100.54-100.54S95.08,50.06,150.6,50.06s100.54,45.01,100.54,100.54-45.01,100.54-100.54,100.54Z" fill="#fff" stroke="#fff" stroke-miterlimit="10"/></g></svg>